# xmcd
# 
# Track frame offsets:
#     150
#     17085
#     52842
#     80585
# 
# Disc length: 1414
# 
# Revision: 0
# Processed by: cddbd v1.5.2PL0 Copyright (c) Steve Scherf et al.
# Submitted via: BonkEnc v1.0.8
# 
DISCID=24058404
DTITLE=Stevie B. - Love and Emotion
DYEAR=0
DGENRE=Freestyle
TTITLE0=Love and Emotion (LP Version)
TTITLE1=Love and Emotion (Mean Mix)
TTITLE2=Love and Emotion (Rhythm Method Mix)
TTITLE3=Love and Emotion (Nasty B-Boy Mix)
EXTD=
EXTT0=
EXTT1=
EXTT2=
EXTT3=
PLAYORDER=
